<svg width="181" height="132" viewBox="0 0 181 132" fill="none" xmlns="http://www.w3.org/2000/svg">
<path d="M32.3041 2.73389C5.20505 22.4609 -10.3467 48.4575 16.8323 77.1765C37.7693 99.2998 81.4615 97.8575 95.0372 67.519C98.2899 60.2501 92.3655 50.8276 86.3675 46.7884C76.8791 40.3988 67.1657 42.7122 58.9367 50.209C43.988 63.8275 36.5363 91.9823 51.7398 108.097C75.5321 133.314 113.131 132.583 143.522 120.743C149.576 118.384 191.334 93.3994 164.66 99.267C159.82 100.332 145.458 104.088 150.356 103.33C158.478 102.072 162.988 101.027 170.48 97.1717C171.967 96.4062 179.181 91.3188 178.179 96.0086C176.128 105.611 174.827 115.326 172.552 124.897" stroke="#FD8347" stroke-width="5" stroke-linecap="round"/>
</svg>
