<svg width="468" height="85" viewBox="0 0 468 85" fill="none" xmlns="http://www.w3.org/2000/svg">
<g clip-path="url(#clip0_205_2)">
<path d="M9.68224 67.1833C7.96166 67.187 6.27091 66.734 4.78273 65.8704C3.29455 65.0069 2.06228 63.7637 1.2118 62.268C0.374343 60.7829 -0.0433199 59.0979 0.00355297 57.3935C0.0504259 55.6892 0.560068 54.0297 1.47789 52.5928L18.9214 25.2007C19.8142 23.7285 21.0817 22.5197 22.5945 21.6977C24.1074 20.8757 25.8113 20.47 27.5322 20.522C29.2519 20.5632 30.9297 21.0605 32.394 21.9631C33.8583 22.8657 35.0565 24.1412 35.8659 25.6589C37.492 28.7337 37.2888 32.433 35.3412 35.3193L17.9088 62.7115C17.0247 64.0891 15.8073 65.2211 14.3692 66.0028C12.9311 66.7845 11.319 67.1906 9.68224 67.1833V67.1833Z" fill="#979797"/>
<path d="M39.6021 67.1833C36.0839 67.1833 32.8465 65.3022 31.1465 62.2791C30.3109 60.798 29.8942 59.1174 29.9411 57.4175C29.9879 55.7177 30.4966 54.0626 31.4126 52.6298L48.8228 25.3004C49.7024 23.8076 50.9654 22.5772 52.4808 21.737C53.9963 20.8967 55.7089 20.4772 57.441 20.522C60.9889 20.5996 64.2041 22.5841 65.8302 25.6885C67.4452 28.7928 67.2086 32.5144 65.2019 35.3933L47.7954 62.7226C46.9141 64.0943 45.7016 65.2219 44.2696 66.0015C42.8377 66.7811 41.2325 67.1875 39.6021 67.1833V67.1833Z" fill="#979797"/>
<path d="M68.8535 67.4124C73.8132 67.4124 77.8339 63.4761 77.8339 58.6204C77.8339 53.7648 73.8132 49.8285 68.8535 49.8285C63.8937 49.8285 59.873 53.7648 59.873 58.6204C59.873 63.4761 63.8937 67.4124 68.8535 67.4124Z" fill="#979797"/>
<path d="M458.989 50.3385C461.702 50.3385 463.324 52.2676 463.324 55.4274V66.2557H467.009V55.1798C467.009 49.8063 464.477 46.6909 459.717 46.6909C457.854 46.6909 454.898 47.2009 453.135 50.6267C452.726 49.6163 452.05 48.7356 451.18 48.0784C450.31 47.4212 449.278 47.0119 448.194 46.8941C447.512 46.7692 446.817 46.7282 446.125 46.7722C444.609 46.8941 441.911 47.8365 440.903 49.9726V47.1011H437.214V66.2557H440.903V55.9189C440.903 51.898 443.534 50.3385 446.169 50.3385C448.638 50.3385 450.26 52.227 450.26 55.3867V66.2557H453.926V55.9189C453.926 52.7185 455.848 50.3015 458.989 50.3385ZM423.677 63.0552C425.362 63.0922 426.988 62.4196 428.167 61.2C429.35 59.9804 429.978 58.3211 429.915 56.6174C429.915 52.7591 427.077 50.3385 423.677 50.3385C420.273 50.3385 417.439 52.7591 417.439 56.6174C417.372 58.3174 418.001 59.973 419.176 61.1889C420.351 62.4085 421.97 63.0848 423.648 63.0552H423.677ZM423.677 66.6474C418.289 66.6474 413.791 62.6672 413.791 56.5952C413.791 50.5233 418.289 46.6687 423.677 46.6687C429.065 46.6687 433.6 50.5233 433.6 56.5952C433.6 62.6672 429.04 66.6659 423.651 66.6659L423.677 66.6474ZM394.814 56.5952L394.777 56.6174C394.777 50.5454 399.393 46.6909 404.818 46.6687C406.181 46.6423 407.534 46.9024 408.79 47.432C410.046 47.9617 411.177 48.7492 412.11 49.7435L409.316 52.1235C408.722 51.5408 408.019 51.0814 407.247 50.7718C406.475 50.4623 405.65 50.3087 404.818 50.32C401.418 50.32 398.462 52.7407 398.462 56.5952C398.462 59.2007 400.01 61.5474 402.386 62.5452C404.763 63.543 407.498 62.9887 409.316 61.1483L412.15 63.5283C411.215 64.5328 410.079 65.3296 408.816 65.8669C407.553 66.4042 406.191 66.6701 404.818 66.6474C399.434 66.6474 394.814 62.6672 394.814 56.5952ZM383.014 62.5785C383.01 62.2436 383.072 61.9112 383.197 61.6004C383.321 61.2895 383.506 61.0062 383.74 60.7667C383.974 60.5271 384.253 60.336 384.561 60.2043C384.869 60.0726 385.199 60.0028 385.534 59.9989C385.869 60.0028 386.2 60.0726 386.508 60.2043C386.816 60.336 387.095 60.5271 387.329 60.7667C387.563 61.0062 387.747 61.2895 387.872 61.6004C387.997 61.9112 388.059 62.2436 388.055 62.5785C388.022 63.227 387.743 63.8386 387.274 64.2884C386.806 64.7383 386.184 64.9924 385.534 64.9991C384.885 64.9924 384.263 64.7383 383.794 64.2884C383.326 63.8386 383.047 63.227 383.014 62.5785Z" fill="#979797"/>
<path fill-rule="evenodd" clip-rule="evenodd" d="M393.095 22.7504H379.972L370.773 46.4654L361.623 22.7504H348.5L364.454 60.2243L354.531 85H367.558L393.095 22.7504ZM313.284 43.5939C313.284 49.5809 318.517 53.5204 323.657 53.5204C328.709 53.5204 333.673 49.8543 333.673 43.5902C333.673 37.3261 328.709 33.6563 323.657 33.6563C318.517 33.6563 313.284 37.5996 313.284 43.5902V43.5939ZM333.673 64.5187V59.7772C331.012 63.8054 324.803 65.328 321.617 65.328C311.07 65.328 300.519 57.0128 300.519 43.5902C300.519 30.1713 311.066 21.8561 321.617 21.8561C324.275 21.8561 330.483 22.743 333.673 27.3996V22.7652H345.905V64.5261L333.673 64.5224V64.5187ZM297.038 64.5187H284.805V59.33C282.761 63.1735 277.805 65.413 272.661 65.413C262.021 65.413 252.623 56.9167 252.623 43.7602C252.623 30.3561 262.021 21.8487 272.661 21.8487C277.798 21.8487 282.769 23.9922 284.805 27.8393V0H297.038V64.5187ZM284.539 43.4978C284.539 37.2374 280.019 33.5676 274.967 33.5676C269.734 33.5676 265.388 37.5035 265.388 43.4978C265.388 49.6844 269.734 53.6017 274.963 53.6017C280.112 53.6091 284.539 49.4922 284.539 43.4978V43.4978ZM222.378 42.4187C222.378 36.0696 225.66 33.9224 230.002 33.9224C234.167 33.9224 237.183 36.6941 237.183 42.2376V64.5113H249.504V39.5583C249.504 27.6657 243.65 21.8487 234.341 21.8487C229.466 21.8487 224.592 24.6204 222.374 28.8261V22.7504H210.06V64.5113H222.378V42.4187ZM185.041 65.2283C173.34 65.2283 163.58 56.6433 163.58 43.4941C163.58 30.3376 173.329 21.8376 185.041 21.8376C196.752 21.8376 206.587 30.3376 206.587 43.4941C206.587 56.6507 196.741 65.232 185.041 65.232V65.2283ZM185.041 53.0696C190.178 53.0696 194.439 49.3074 194.439 43.4978C194.439 37.862 190.182 34.0148 185.041 34.0148C183.803 33.9954 182.574 34.2282 181.429 34.699C180.284 35.1698 179.247 35.8688 178.381 36.7533C177.51 37.6425 176.827 38.6978 176.371 39.8564C175.916 41.0151 175.699 42.2534 175.732 43.4978C175.735 49.3148 179.989 53.0696 185.041 53.0696ZM141.491 33.9261C145.124 33.9261 148.317 36.7902 148.317 42.2413V64.5187H160.55V40.8C160.55 28.1904 154.419 21.8413 144.592 21.8413C141.672 21.8413 136.173 22.7283 132.182 29.2622C129.876 24.432 125.445 21.9263 118.896 21.9263C116.622 21.9147 114.394 22.5582 112.476 23.7798C110.558 25.0015 109.033 26.7495 108.083 28.815V22.7541H95.7539V64.515H108.072V42.4187C108.072 36.0696 111.531 33.9224 115.252 33.9224C118.8 33.9224 121.986 36.6941 122.078 41.9715V64.515H134.399V42.4187C134.399 36.3467 137.592 33.9298 141.491 33.9298V33.9261Z" fill="#979797"/>
</g>
<defs>
<clipPath id="clip0_205_2">
<rect width="467.008" height="85" fill="white"/>
</clipPath>
</defs>
</svg>
