<svg width="512" height="130" viewBox="0 0 512 130" fill="none" xmlns="http://www.w3.org/2000/svg">
<path d="M163.593 101.885L169.98 87.05C176.882 92.201 186.05 94.88 195.116 94.88C201.812 94.88 206.036 92.304 206.036 88.39C205.933 77.47 165.962 86.02 165.653 58.617C165.55 44.71 177.913 33.996 195.425 33.996C205.83 33.996 216.235 36.571 223.652 42.443L217.677 57.587C210.878 53.26 202.431 50.17 194.395 50.17C188.935 50.17 185.33 52.745 185.33 56.042C185.433 66.756 225.713 60.884 226.125 87.05C226.125 101.267 214.072 111.26 196.765 111.26C184.093 111.26 172.452 108.272 163.593 101.885V101.885ZM408.673 81.693L426.289 91.48C419.696 103.327 407.128 111.26 392.602 111.26C371.277 111.26 353.97 93.953 353.97 72.628C353.97 51.303 371.277 33.996 392.602 33.996C407.025 33.996 419.696 42.031 426.289 53.776L408.673 63.562C405.479 57.999 399.504 54.188 392.602 54.188C382.403 54.188 374.162 62.429 374.162 72.628C374.162 82.827 382.403 91.068 392.602 91.068C399.504 91.068 405.479 87.256 408.672 81.693H408.673ZM234.984 1.95703H257.03V109.817H234.984V1.95703V1.95703ZM434.942 1.95703H456.988V65.313L481.918 35.541H508.909L478.107 71.391L511.382 109.817H483.155L456.988 77.47V109.817H434.942V1.95703ZM322.55 81.9V63.665C319.356 58.308 312.763 54.188 305.346 54.188C295.146 54.188 286.906 62.429 286.906 72.628C286.906 82.827 295.146 91.068 305.346 91.068C312.763 91.068 319.356 87.153 322.55 81.899V81.9ZM322.55 35.542H344.596V109.715H322.55V100.959C318.944 107.037 309.981 111.261 300.607 111.261C281.239 111.261 265.993 93.954 265.993 72.526C265.993 51.098 281.239 33.997 300.607 33.997C309.981 33.997 318.944 38.221 322.55 44.299V35.54V35.542Z" fill="#979797"/>
<path d="M27.2995 81.796C27.2995 89.316 21.2215 95.395 13.7005 95.395C11.9143 95.3967 10.1452 95.0461 8.49456 94.3633C6.84394 93.6805 5.34418 92.6788 4.08114 91.4157C2.8181 90.1526 1.81656 88.6527 1.13386 87.0021C0.451163 85.3514 0.100705 83.5823 0.102546 81.796C0.102546 74.276 6.18055 68.198 13.7005 68.198H27.2995V81.796ZM34.0985 81.796C34.0985 74.276 40.1765 68.198 47.6965 68.198C55.2165 68.198 61.2955 74.276 61.2955 81.796V115.792C61.2955 123.312 55.2175 129.391 47.6965 129.391C45.9103 129.393 44.1414 129.042 42.4909 128.359C40.8404 127.676 39.3407 126.674 38.0778 125.411C36.8148 124.148 35.8134 122.648 35.1308 120.998C34.4481 119.347 34.0977 117.578 34.0995 115.792V81.796H34.0985Z" fill="#979797"/>
<path d="M47.697 27.197C45.9108 27.1986 44.1418 26.8479 42.4913 26.165C40.8408 25.4821 39.3412 24.4805 38.0782 23.2173C36.8153 21.9542 35.8139 20.4544 35.1312 18.8038C34.4486 17.1532 34.0982 15.3842 34.1 13.598C34.099 6.078 40.177 0 47.697 0C55.217 0 61.296 6.078 61.296 13.598V27.197H47.697V27.197ZM47.697 34.099C55.217 34.099 61.296 40.177 61.296 47.697C61.296 55.217 55.218 61.296 47.697 61.296H13.598C11.8117 61.2977 10.0426 60.9471 8.39202 60.2643C6.7414 59.5815 5.24165 58.5798 3.9786 57.3167C2.71556 56.0536 1.71402 54.5537 1.03132 52.9031C0.348624 51.2524 -0.00183445 49.4833 7.22092e-06 47.697C7.22092e-06 40.177 6.07801 34.1 13.598 34.1H47.698L47.697 34.099Z" fill="#979797"/>
<path d="M102.194 47.697C102.194 40.177 108.272 34.099 115.792 34.099C123.312 34.099 129.391 40.177 129.391 47.697C129.391 55.217 123.313 61.296 115.792 61.296H102.194V47.697V47.697ZM95.3942 47.697C95.3942 55.217 89.3172 61.296 81.7962 61.296C80.01 61.2977 78.2409 60.9471 76.5903 60.2643C74.9396 59.5815 73.4399 58.5798 72.1768 57.3167C70.9138 56.0536 69.9123 54.5537 69.2296 52.9031C68.5469 51.2524 68.1964 49.4833 68.1982 47.697V13.598C68.1982 6.078 74.2762 0 81.7962 0C89.3162 0 95.3952 6.078 95.3952 13.598V47.698L95.3942 47.697Z" fill="#979797"/>
<path d="M81.7962 102.194C89.3162 102.194 95.3952 108.272 95.3952 115.792C95.3952 123.312 89.3172 129.391 81.7962 129.391C80.01 129.393 78.2409 129.042 76.5903 128.359C74.9396 127.676 73.4399 126.675 72.1768 125.412C70.9138 124.149 69.9123 122.649 69.2296 120.998C68.5469 119.347 68.1964 117.578 68.1982 115.792V102.194H81.7962V102.194ZM81.7962 95.394C80.0101 95.3957 78.2411 95.0452 76.5905 94.3624C74.9399 93.6796 73.4402 92.6781 72.1772 91.4151C70.9142 90.152 69.9126 88.6523 69.2299 87.0018C68.5471 85.3512 68.1965 83.5822 68.1982 81.796C68.1982 74.276 74.2762 68.198 81.7962 68.198H115.896C123.416 68.198 129.494 74.276 129.494 81.796C129.494 89.316 123.416 95.395 115.895 95.395H81.7962V95.394Z" fill="#979797"/>
</svg>
