<svg width="547" height="118" viewBox="0 0 547 118" fill="none" xmlns="http://www.w3.org/2000/svg">
<path d="M292.18 82.6641C286.243 88.6881 279.138 91.7227 270.904 91.7227C264.247 91.7227 258.586 90.3614 252.81 87.0067V73.1907C257.458 76.3401 263.291 79.3414 269.052 79.3414C281.06 79.3414 288.214 71.0761 288.214 59.3614C288.214 47.6347 280.814 39.1227 268.803 39.1227C263.431 39.1227 259.086 41.052 255.686 44.9174C252.042 49.1094 250.16 55.0974 250.16 63.0134V117.575H249.255C242.638 117.575 237.27 112.208 237.27 105.591V60.9681C237.27 42.0334 248.848 26.7454 268.746 26.7454C278.564 26.7454 286.544 30.1027 292.594 36.8507C298.282 43.1534 301.103 51.1481 301.103 60.7601C301.103 69.3174 298.131 76.6321 292.18 82.6641V82.6641ZM431.742 82.2054C425.824 88.5547 418.212 91.7227 408.976 91.7227C399.238 91.7227 391.295 88.36 385.254 81.6134C379.571 75.232 376.744 67.2347 376.744 57.704C376.744 40.8374 389.768 26.7454 406.892 26.7454C413.504 26.7454 419.242 28.1347 425.04 31.3174V45.2734C420.388 42.124 414.554 39.1227 408.798 39.1227C396.79 39.1227 389.636 47.3867 389.636 59.104C389.636 70.6707 397.203 79.3414 409.043 79.3414C414.403 79.3414 418.822 77.328 422.354 73.284C425.862 69.26 427.687 63.352 427.687 55.412V11.9854C427.687 5.36804 433.052 5.89722e-05 439.676 5.89722e-05H440.576V57.448C440.576 67.568 437.651 75.848 431.742 82.2054V82.2054ZM468.139 20.6107C466.784 22.1254 464.846 22.8241 462.476 22.8241C458.055 22.8241 454.891 19.5574 454.891 15.1707C454.891 10.676 457.999 7.6427 462.476 7.6427C466.792 7.6427 470.07 10.84 470.07 15.1707C470.07 17.312 469.444 19.1467 468.139 20.6107ZM533.63 55.412C533.63 50.332 531.708 46.3107 527.84 43.2601C524.361 40.5187 520.011 39.1227 514.731 39.1227C503.066 39.1227 495.579 48.2414 495.579 59.484C495.579 70.312 503.511 79.3414 514.612 79.3414C522.324 79.3414 526.455 74.8307 530.856 69.2187V85.4107C528.611 87.0894 526.032 88.9201 523.398 89.9947C520.62 91.1561 517.308 91.7227 513.475 91.7227C494.923 91.7227 482.687 76.3547 482.687 58.5961C482.687 49.4774 485.519 41.9414 491.22 36.0614C497.274 29.8347 505.206 26.7454 514.922 26.7454C533.343 26.7454 546.522 37.3201 546.522 56.4294V90.448H545.615C538.996 90.448 533.63 85.0827 533.63 78.4641V55.412ZM357.184 51.7641C355.551 46.7241 353.512 44.2467 348.811 41.6254C337.646 35.3814 326.654 40.6934 321.538 51.7134L357.184 51.7641ZM347.35 91.5321C339.115 93.2787 331.036 91.9321 323.156 87.5307C315.47 83.2334 310.315 76.8454 307.738 68.412C302.522 51.348 313.211 32.3321 330.398 27.7241C338.918 25.4427 347.091 26.4774 354.852 30.8174C367.747 38.0214 372.444 49.1694 371.626 63.5347L319.695 63.4267C320.458 69.2867 324.092 73.8721 329.195 76.7227C334.37 79.6161 339.131 80.3067 343.55 78.9361C348.448 77.3961 352.424 73.3974 355.66 69.672L366.246 77.3827C361.926 85.1067 356.047 89.6787 347.35 91.5321V91.5321ZM456.035 28.0174H468.922V90.448H468.019C461.404 90.448 456.035 85.0827 456.035 78.4641V28.0174Z" fill="#979797"/>
<path d="M18.8604 90.448C6.2584 90.448 0 81.872 0 69.8987V24.4653C0 17.8467 5.36453 12.4813 11.9864 12.4813H12.8896V28.0173H34.6667V40.3987H12.8896V71.3307C12.8896 76.592 15.2391 78.0706 20.2625 78.0706H34.6667V90.448H18.8604ZM93.7213 82.5547C87.348 88.6627 79.696 91.7227 70.8052 91.7227C61.9979 91.7227 54.3844 88.66 48.0208 82.5547C41.6303 76.428 38.4427 68.6307 38.4427 59.2333C38.4427 40.8987 52.4479 26.7453 70.8052 26.7453C79.6173 26.7453 87.2467 29.8306 93.6547 35.9746C100.085 42.1413 103.295 49.916 103.295 59.2333C103.295 68.6307 100.107 76.428 93.7213 82.5547ZM153.979 43.0386C152.088 46.2093 150.624 48.4853 149.592 49.8587C148.453 51.3507 147.332 52.5453 146.221 53.368C155.179 56.2653 158.515 62.4706 158.515 71.716V90.448H157.608C150.988 90.448 145.621 85.0827 145.621 78.464V72.9853C145.621 67.0027 142.941 62.9373 136.596 62.9373H124.889V90.448H123.987C117.367 90.448 112 85.0827 112 78.464V11.9853C112 5.36798 117.367 -4.78371e-06 123.987 -4.78371e-06H124.889V50.4293H128.699C132.884 50.4293 135.639 49.0013 137.215 46.292L148.044 28.02L162.732 28.0066L153.979 43.0386ZM220.516 82.5547C214.148 88.6627 206.493 91.7227 197.601 91.7227C188.796 91.7227 181.185 88.66 174.815 82.5547C168.428 76.428 165.244 68.6307 165.244 59.2333C165.244 40.8987 179.243 26.7453 197.601 26.7453C206.416 26.7453 214.047 29.8306 220.453 35.9746C226.881 42.1413 230.093 49.916 230.093 59.2333C230.093 68.6307 226.905 76.428 220.516 82.5547ZM211.213 44.7066C207.661 40.9866 203.144 39.1227 197.601 39.1227C185.74 39.1227 178.64 47.772 178.64 59.2333C178.64 70.536 185.911 79.3413 197.601 79.3413C209.301 79.3413 216.561 70.536 216.561 59.2333C216.561 53.232 214.763 48.4173 211.213 44.7066V44.7066ZM84.4133 44.7066C80.8613 40.9866 76.3493 39.1227 70.8052 39.1227C58.9421 39.1227 51.8443 47.772 51.8443 59.2333C51.8443 70.536 59.114 79.3413 70.8052 79.3413C82.5 79.3413 89.7693 70.536 89.7693 59.2333C89.7693 53.232 87.968 48.4173 84.4133 44.7066Z" fill="#979797"/>
</svg>
