<svg width="407" height="91" viewBox="0 0 407 91" fill="none" xmlns="http://www.w3.org/2000/svg">
<path d="M325.352 68.689C329.423 67.487 334.413 67.4261 337.685 67.4261H338.66V67.874C338.66 71.5885 337.372 75.5641 335.004 78.4416C333.033 80.8349 330.296 82.4521 326.925 82.4521C324.327 82.4521 322.353 81.6969 320.997 80.5495C319.483 79.2698 318.72 77.4885 318.72 75.7516C318.72 71.827 321.676 69.7724 325.352 68.689V68.689ZM314.297 86.3859C317.373 89.0328 321.643 90.3792 325.892 90.3792C329.515 90.3792 332.759 89.2776 335.431 87.5094C336.739 86.6448 337.908 85.6187 338.917 84.4833V87.8271V89.3505H340.44H346.036H347.559V87.8271V60.2516C347.559 54.4641 345.975 49.9833 342.963 46.9052C339.92 43.8005 335.499 42.2 329.852 42.2C326.832 42.2 323.712 42.7177 320.885 43.6182C318.005 44.5349 315.423 45.8584 313.547 47.4442L312.563 48.2776L313.225 49.3828L315.895 53.8374L316.748 55.2594L318.088 54.2828C319.749 53.0745 321.619 52.1094 323.593 51.4494C325.495 50.8152 327.499 50.4704 329.507 50.4704C332.365 50.4704 334.805 51.137 336.404 52.8037C337.776 54.236 338.605 56.4756 338.656 59.7568H337.599C333.361 59.7568 326.595 59.9797 320.817 62.0406C314.708 64.2204 309.735 68.3776 309.735 76.2672C309.735 80.6255 311.535 84.0104 314.297 86.3859V86.3859ZM278.717 89.3505H271.341V26.1H280.24V27.6218V59.6708H284.952L297.408 43.8109L297.864 43.2276H298.601H305.661H308.832L306.845 45.7026L292.424 63.6552L308.46 86.9651L310.1 89.3505H307.211H300.152H299.345L298.892 88.6719L284.969 67.8541H280.24V87.8271V89.3505H278.717ZM228.169 54.9808C225.445 57.7594 223.768 61.6422 223.768 66.0745C223.768 70.663 225.437 74.624 228.148 77.4443C230.908 80.3166 234.757 82.0224 239.031 82.0224C243.315 82.0224 247.192 80.3114 249.972 77.4338C252.696 74.6109 254.381 70.6552 254.381 66.0745C254.381 61.65 252.688 57.7724 249.949 54.9922C247.169 52.1698 243.303 50.4704 239.031 50.4704C234.769 50.4693 230.928 52.1656 228.169 54.9808V54.9808ZM221.719 83.3323C217.372 78.9911 214.696 72.9546 214.696 66.0745C214.696 59.3141 217.375 53.3818 221.728 49.1172C226.136 44.7985 232.252 42.2 239.032 42.2C245.816 42.2 251.959 44.8005 256.387 49.1224C260.757 53.3896 263.455 59.3193 263.455 66.0745C263.455 72.9494 260.763 78.9818 256.401 83.3219C251.972 87.7281 245.824 90.3792 239.032 90.3792C232.247 90.3792 226.127 87.7333 221.719 83.3323ZM200.764 87.6734C198.347 85.9599 196.447 82.9364 196.447 77.637V27.6218V26.1H197.971H203.823H205.347V27.6218V76.3505C205.347 78.7047 205.821 79.9807 206.496 80.637C207.081 81.2047 207.933 81.3375 208.731 81.3375C208.931 81.3375 209.183 81.3375 209.289 81.3323C209.471 81.3245 209.667 81.3078 209.863 81.275L211.631 80.9833V82.775V87.9989V89.2864L210.352 89.4974C210.079 89.5432 209.748 89.5885 209.329 89.6265C208.896 89.6656 208.432 89.6927 207.956 89.6927C205.975 89.6927 203.159 89.3687 200.764 87.6734ZM159.808 53.3141C157.911 55.0172 156.452 57.3792 155.675 60.3557H179.371C179.003 57.2636 177.917 54.887 176.365 53.2046C174.413 51.0849 171.679 50.0406 168.7 50.0406C165.333 50.0406 162.205 51.163 159.808 53.3141ZM152.777 83.538C148.493 79.2932 145.916 73.3308 145.916 66.3322C145.916 59.0901 148.348 53.2229 152.277 49.077C156.492 44.6322 162.405 42.2 168.872 42.2C175.017 42.2 179.755 44.4552 183.049 48.0756C186.652 52.0354 188.473 57.5989 188.473 63.5901C188.473 64.0652 188.449 64.5953 188.415 65.1422C188.387 65.5578 188.339 66.1005 188.289 66.6396L188.163 68.0261H186.779H155.159C155.553 72.1276 157.107 75.3844 159.4 77.7125C162.18 80.5354 166.081 82.0224 170.336 82.0224C172.499 82.0224 174.7 81.5745 176.768 80.7698C178.88 79.9453 180.849 78.75 182.489 77.2776L183.861 76.0458L184.809 77.6266L187.477 82.0807L188.119 83.1474L187.199 83.9833C185.044 85.9443 182.304 87.5406 179.352 88.6448C176.38 89.7568 173.191 90.3776 170.164 90.3776C163.239 90.3792 157.136 87.8583 152.777 83.538ZM125.917 89.3505H118.508L118.13 88.3739L101.43 45.298L100.628 43.2276H102.845H109.129H110.177L110.551 44.2152L122.516 75.8166L122.522 75.8349C122.578 75.987 122.631 76.1448 122.686 76.3062C122.741 76.1448 122.797 75.987 122.853 75.8349L122.858 75.8166L134.824 44.2152L135.197 43.2276H136.245H142.443H144.656L143.864 45.2912L127.336 88.3687L126.959 89.3505H125.917ZM74.2412 68.689C70.5651 69.7724 67.6093 71.827 67.6093 75.7516C67.6093 77.4885 68.3724 79.2698 69.8864 80.5484C71.2421 81.6953 73.2161 82.4521 75.814 82.4521C79.1849 82.4521 81.9219 80.8349 83.8932 78.4416C86.262 75.5641 87.5495 71.5885 87.5495 67.874V67.4261H86.5755C83.3021 67.4261 78.3125 67.487 74.2412 68.689V68.689ZM63.186 86.3859C60.4255 84.0094 58.6251 80.6255 58.6251 76.2672C58.6251 68.3765 63.5973 64.2204 69.7073 62.0406C75.4844 59.9781 82.25 59.7568 86.4896 59.7568H87.5469C87.4964 56.4756 86.6651 54.236 85.2927 52.8037C83.6937 51.137 81.2568 50.4693 78.3973 50.4693C76.3864 50.4693 74.3844 50.8141 72.4828 51.4494C70.5079 52.1094 68.638 53.0745 66.9792 54.2828L65.6364 55.2594L64.7839 53.8365L62.1156 49.3818L61.4521 48.2761L62.436 47.4442C64.314 45.8568 66.8948 44.5349 69.7751 43.6172C72.6016 42.7172 75.7229 42.1994 78.7412 42.1994C84.3896 42.1994 88.8115 43.7994 91.8505 46.9052C94.8645 49.9833 96.4479 54.4625 96.4479 60.2516V87.8271V89.3489H94.9255H89.3297H87.8073V87.8271V84.4833C86.7979 85.6187 85.6276 86.6448 84.3213 87.5094C81.6473 89.2776 78.4036 90.3765 74.7812 90.3765C70.5323 90.3792 66.264 89.0328 63.186 86.3859ZM39.4869 89.3505H32.1104V43.2276H40.9235V44.75V49.4729C41.7771 48.2985 42.7464 47.2344 43.8193 46.3193C46.3792 44.1374 49.5131 42.7989 53.0869 42.7989C53.5235 42.7989 54 42.8256 54.4807 42.8792C54.9287 42.9281 55.3708 43.0032 55.7751 43.1037L56.9349 43.3922V44.5792V50.3166V52.4208L54.936 51.762C54.9183 51.7552 54.7188 51.737 54.4255 51.7141C54.0765 51.6865 53.6536 51.6682 53.2604 51.6682C49.5016 51.6682 46.7041 53.5537 44.7527 56.3078L44.75 56.3062C42.1693 59.9521 41.0079 65.0917 41.0079 69.5849V87.8271V89.3489H39.4869V89.3505ZM12.0391 86.8062C8.51303 84.3479 5.68229 79.9547 5.68229 72.1552V51.4964H1.52344H0V49.9745V45.0932V43.5704H1.52344H5.76823V32.8469V31.3245H7.29011H13.0589H14.5807V32.8469V43.5704H23.9912H25.5131V45.0932V49.9745V51.4964H23.9912H14.5807V71.5546C14.5807 75.1761 15.4713 77.4807 16.7213 78.9312C18.5193 81.0198 21.1615 81.4234 22.8724 81.4234C23.1667 81.4234 23.4625 81.4234 23.6953 81.4078H23.7021C23.9636 81.3896 24.236 81.3568 24.5251 81.2932L26.374 80.8844V82.7734V87.9974V89.2854L25.0964 89.4963C24.7631 89.551 24.3229 89.6057 23.8011 89.6422C23.3584 89.6719 22.8688 89.6917 22.3552 89.6917C19.6511 89.6927 15.5339 89.2422 12.0391 86.8062" fill="#979797"/>
<path d="M381.268 47.7297C381.319 47.6994 381.369 47.6698 381.42 47.637C379.098 40.6994 388.753 28.975 406.667 9.36608C392.187 11.1431 380.984 14.8193 373.062 20.3931C373.833 31.7567 376.568 40.8693 381.268 47.7297" fill="#979797"/>
<path d="M381.268 47.7297C381.319 47.6994 381.369 47.6698 381.42 47.637C381.342 47.4037 381.278 47.163 381.228 46.9166C378.966 38.325 378.051 28.398 378.479 17.137C376.529 18.139 374.724 19.225 373.062 20.3931C373.833 31.7567 376.568 40.8693 381.268 47.7297Z" fill="#979797"/>
<path d="M387.228 57.6761C391.054 59.6343 394.222 60.6447 397.03 60.1603C378.158 52.7635 370.325 32.7094 373.53 -5.7694e-05C366.75 1.33274 361.249 4.43328 357.417 9.60101C354.08 14.1031 355.149 19.8255 357.886 27.4619C358.253 28.4865 358.694 34.0051 356.41 36.0562C355.569 36.8094 354.22 36.2141 353.052 35.4521C349.04 33.1729 345.705 33.1947 343.048 35.5193C335.725 34.289 330.42 33.6182 327.136 33.5046C331.822 34.9813 337.237 36.4985 343.316 38.2718C345.914 39.0286 348.141 40.8109 349.897 43.5089C353.489 49.0302 363.669 52.025 373.53 53.4469C377.23 53.9797 382.348 55.1786 387.228 57.6761" fill="#979797"/>
</svg>
