<svg width="541" height="164" viewBox="0 0 541 164" fill="none" xmlns="http://www.w3.org/2000/svg">
<path d="M486.761 29.2263L496.936 33.6798L526.259 17.6845L508.573 38.3159L533.923 49.8577C534.356 50.0476 534.829 50.1303 535.301 50.0988C535.774 50.0673 536.231 49.9226 536.636 49.6768C537.04 49.4311 537.38 49.0916 537.625 48.687C537.871 48.2824 538.015 47.8247 538.046 47.3525L540.994 3.14233C541.027 2.63062 540.926 2.11919 540.701 1.65834C540.476 1.1975 540.135 0.80314 539.712 0.514063C539.288 0.224986 538.797 0.0511556 538.285 0.00967857C537.774 -0.0317985 537.261 0.0605067 536.797 0.277511L486.687 23.8563C486.176 24.0988 485.746 24.4829 485.446 24.9631C485.147 25.4433 484.993 25.9993 485 26.5649C485.008 27.1306 485.178 27.6821 485.49 28.1539C485.802 28.6257 486.244 28.998 486.761 29.2263V29.2263ZM502.678 56L516.756 49.1739L502.678 42.6073V56Z" fill="#1EC38B"/>
<path d="M85.132 39.656V54.12H61.324V129H43.404V54.12H19.596V39.656H85.132ZM116.127 69.096C118.431 65.3413 121.418 62.3973 125.087 60.264C128.842 58.1307 133.108 57.064 137.887 57.064V75.88H133.151C127.519 75.88 123.252 77.2027 120.351 79.848C117.535 82.4933 116.127 87.1013 116.127 93.672V129H98.207V58.088H116.127V69.096ZM145.349 93.288C145.349 86.12 146.757 79.7627 149.573 74.216C152.474 68.6693 156.357 64.4027 161.221 61.416C166.17 58.4293 171.674 56.936 177.733 56.936C183.024 56.936 187.632 58.0027 191.557 60.136C195.568 62.2693 198.768 64.9573 201.157 68.2V58.088H219.205V129H201.157V118.632C198.853 121.96 195.653 124.733 191.557 126.952C187.546 129.085 182.896 130.152 177.605 130.152C171.632 130.152 166.17 128.616 161.221 125.544C156.357 122.472 152.474 118.163 149.573 112.616C146.757 106.984 145.349 100.541 145.349 93.288ZM201.157 93.544C201.157 89.192 200.304 85.48 198.597 82.408C196.89 79.2507 194.586 76.8613 191.685 75.24C188.784 73.5333 185.669 72.68 182.341 72.68C179.013 72.68 175.941 73.4907 173.125 75.112C170.309 76.7333 168.005 79.1227 166.213 82.28C164.506 85.352 163.653 89.0213 163.653 93.288C163.653 97.5547 164.506 101.309 166.213 104.552C168.005 107.709 170.309 110.141 173.125 111.848C176.026 113.555 179.098 114.408 182.341 114.408C185.669 114.408 188.784 113.597 191.685 111.976C194.586 110.269 196.89 107.88 198.597 104.808C200.304 101.651 201.157 97.896 201.157 93.544ZM266.275 112.488L284.195 58.088H303.267L277.027 129H255.267L229.155 58.088H248.355L266.275 112.488ZM322.42 49.64C319.263 49.64 316.617 48.6587 314.484 46.696C312.436 44.648 311.412 42.1307 311.412 39.144C311.412 36.1573 312.436 33.6827 314.484 31.72C316.617 29.672 319.263 28.648 322.42 28.648C325.577 28.648 328.18 29.672 330.228 31.72C332.361 33.6827 333.428 36.1573 333.428 39.144C333.428 42.1307 332.361 44.648 330.228 46.696C328.18 48.6587 325.577 49.64 322.42 49.64ZM331.252 58.088V129H313.332V58.088H331.252ZM376.733 56.936C382.024 56.936 386.674 58.0027 390.685 60.136C394.696 62.184 397.853 64.872 400.157 68.2V58.088H418.205V129.512C418.205 136.083 416.882 141.928 414.237 147.048C411.592 152.253 407.624 156.349 402.333 159.336C397.042 162.408 390.642 163.944 383.133 163.944C373.064 163.944 364.786 161.597 358.301 156.904C351.901 152.211 348.274 145.811 347.421 137.704H365.213C366.152 140.947 368.157 143.507 371.229 145.384C374.386 147.347 378.184 148.328 382.621 148.328C387.826 148.328 392.05 146.749 395.293 143.592C398.536 140.52 400.157 135.827 400.157 129.512V118.504C397.853 121.832 394.653 124.605 390.557 126.824C386.546 129.043 381.938 130.152 376.733 130.152C370.76 130.152 365.298 128.616 360.349 125.544C355.4 122.472 351.474 118.163 348.573 112.616C345.757 106.984 344.349 100.541 344.349 93.288C344.349 86.12 345.757 79.7627 348.573 74.216C351.474 68.6693 355.357 64.4027 360.221 61.416C365.17 58.4293 370.674 56.936 376.733 56.936ZM400.157 93.544C400.157 89.192 399.304 85.48 397.597 82.408C395.89 79.2507 393.586 76.8613 390.685 75.24C387.784 73.5333 384.669 72.68 381.341 72.68C378.013 72.68 374.941 73.4907 372.125 75.112C369.309 76.7333 367.005 79.1227 365.213 82.28C363.506 85.352 362.653 89.0213 362.653 93.288C362.653 97.5547 363.506 101.309 365.213 104.552C367.005 107.709 369.309 110.141 372.125 111.848C375.026 113.555 378.098 114.408 381.341 114.408C384.669 114.408 387.784 113.597 390.685 111.976C393.586 110.269 395.89 107.88 397.597 104.808C399.304 101.651 400.157 97.896 400.157 93.544ZM467.195 130.152C460.368 130.152 454.224 128.659 448.763 125.672C443.302 122.6 438.992 118.291 435.835 112.744C432.763 107.197 431.227 100.797 431.227 93.544C431.227 86.2907 432.806 79.8907 435.963 74.344C439.206 68.7973 443.6 64.5307 449.147 61.544C454.694 58.472 460.88 56.936 467.707 56.936C474.534 56.936 480.72 58.472 486.267 61.544C491.814 64.5307 496.166 68.7973 499.323 74.344C502.566 79.8907 504.187 86.2907 504.187 93.544C504.187 100.797 502.523 107.197 499.195 112.744C495.952 118.291 491.515 122.6 485.883 125.672C480.336 128.659 474.107 130.152 467.195 130.152ZM467.195 114.536C470.438 114.536 473.467 113.768 476.283 112.232C479.184 110.611 481.488 108.221 483.195 105.064C484.902 101.907 485.755 98.0667 485.755 93.544C485.755 86.8027 483.963 81.64 480.379 78.056C476.88 74.3867 472.571 72.552 467.451 72.552C462.331 72.552 458.022 74.3867 454.523 78.056C451.11 81.64 449.403 86.8027 449.403 93.544C449.403 100.285 451.067 105.491 454.395 109.16C457.808 112.744 462.075 114.536 467.195 114.536Z" fill="#272B44"/>
</svg>
